# Blender v3.0.1 OBJ File: ''
# www.blender.org
v 0.113113 1.295374 -4.355712
v 0.887966 0.702152 -5.619158
v 0.463200 -0.020908 -3.522978
v 1.238052 -0.614130 -4.786424
v -1.238052 0.614130 -4.864498
v -0.463200 0.020908 -6.127945
v -0.887966 -0.702152 -4.031765
v -0.113113 -1.295374 -5.295210
v 2.245362 -1.000000 -4.825461
v 2.968962 -0.447215 -4.299741
v 1.968977 -0.447215 -3.974822
v 1.350937 -0.447215 -4.825461
v 1.968977 -0.447215 -5.676102
v 2.968962 -0.447215 -5.351182
v 2.521747 0.447215 -3.974822
v 1.521762 0.447215 -4.299741
v 1.521762 0.447215 -5.351182
v 2.521747 0.447215 -5.676102
v 3.139787 0.447215 -4.825461
v 2.245362 1.000000 -4.825461
v -1.081197 -1.000000 -5.289055
v -1.861060 -1.000000 -4.109303
v -3.040812 -1.000000 -4.889166
v -2.260949 -1.000000 -6.068918
v -2.061004 1.000000 -5.089111
vn -0.4854 0.3716 0.7914
vn 0.2193 -0.8245 0.5216
vn -0.8464 -0.4267 -0.3187
vn 0.4854 -0.3716 -0.7914
vn 0.8464 0.4267 0.3187
vn -0.2193 0.8245 -0.5216
vn 0.1876 -0.7947 0.5774
vn 0.6071 -0.7947 0.0000
vn -0.4911 -0.7947 0.3568
vn -0.4911 -0.7947 -0.3568
vn 0.1876 -0.7947 -0.5774
vn 0.9822 -0.1876 0.0000
vn 0.3035 -0.1876 0.9342
vn -0.7946 -0.1876 0.5774
vn -0.7946 -0.1876 -0.5774
vn 0.3035 -0.1876 -0.9342
vn 0.7946 0.1876 0.5774
vn -0.3035 0.1876 0.9342
vn -0.9822 0.1876 0.0000
vn -0.3035 0.1876 -0.9342
vn 0.7946 0.1876 -0.5774
vn 0.4911 0.7947 0.3568
vn -0.1876 0.7947 0.5774
vn -0.6071 0.7947 0.0000
vn -0.1876 0.7947 -0.5774
vn 0.4911 0.7947 -0.3568
vn 0.7865 0.3333 0.5199
vn -0.5199 0.3333 0.7865
vn 0.0000 -1.0000 0.0000
vn -0.7865 0.3333 -0.5199
vn 0.5199 0.3333 -0.7865
s off
f 5//1 3//1 1//1
f 3//2 8//2 4//2
f 8//3 5//3 6//3
f 2//4 8//4 6//4
f 1//5 4//5 2//5
f 6//6 1//6 2//6
f 9//7 10//7 11//7
f 10//8 9//8 14//8
f 9//9 11//9 12//9
f 9//10 12//10 13//10
f 9//11 13//11 14//11
f 10//12 14//12 19//12
f 11//13 10//13 15//13
f 12//14 11//14 16//14
f 13//15 12//15 17//15
f 14//16 13//16 18//16
f 10//17 19//17 15//17
f 11//18 15//18 16//18
f 12//19 16//19 17//19
f 13//20 17//20 18//20
f 14//21 18//21 19//21
f 15//22 19//22 20//22
f 16//23 15//23 20//23
f 17//24 16//24 20//24
f 18//25 17//25 20//25
f 19//26 18//26 20//26
f 21//27 25//27 22//27
f 22//28 25//28 23//28
f 21//29 23//29 24//29
f 23//30 25//30 24//30
f 24//31 25//31 21//31
f 5//1 7//1 3//1
f 3//2 7//2 8//2
f 8//3 7//3 5//3
f 2//4 4//4 8//4
f 1//5 3//5 4//5
f 6//6 5//6 1//6
f 21//29 22//29 23//29
