# Blender v3.0.1 OBJ File: ''
# www.blender.org
v 0.033254 0.380829 -5.861898
v 0.261054 0.206427 -6.233340
v 0.136177 -0.006147 -5.617081
v 0.363977 -0.180549 -5.988523
v -0.363977 0.180549 -6.011477
v -0.136177 0.006147 -6.382919
v -0.261054 -0.206427 -5.766660
v -0.033254 -0.380829 -6.138102
v -5.857996 0.380829 0.003623
v -6.157823 0.206427 -0.312552
v -5.594884 -0.006147 -0.032430
v -5.894710 -0.180549 -0.348604
v -6.105290 0.180549 0.348604
v -6.405116 0.006147 0.032430
v -5.842177 -0.206427 0.312552
v -6.142003 -0.380829 -0.003622
v 0.082154 0.380829 5.884117
v -0.347467 0.206427 5.956835
v 0.198867 -0.006147 5.645567
v -0.230754 -0.180549 5.718285
v 0.230754 0.180549 6.281715
v -0.198867 0.006147 6.354433
v 0.347467 -0.206427 6.043165
v -0.082154 -0.380829 6.115883
v 5.142004 0.380829 0.003623
v 4.842177 0.206427 -0.312552
v 5.405116 -0.006147 -0.032430
v 5.105290 -0.180549 -0.348604
v 4.894710 0.180549 0.348604
v 4.594884 0.006147 0.032430
v 5.157823 -0.206427 0.312552
v 4.857997 -0.380829 -0.003622
vn -0.4854 0.3716 0.7914
vn 0.2193 -0.8245 0.5216
vn -0.8464 -0.4267 -0.3187
vn 0.4854 -0.3716 -0.7914
vn 0.8464 0.4267 0.3187
vn -0.2193 0.8245 -0.5216
vn 0.6388 0.3716 0.6737
vn 0.5606 -0.8245 -0.0768
vn -0.5269 -0.4267 0.7350
vn -0.6388 -0.3716 -0.6737
vn 0.5269 0.4267 -0.7350
vn -0.5606 0.8245 0.0768
vn 0.9154 0.3716 -0.1549
vn 0.2487 -0.8245 -0.5083
vn 0.3166 -0.4267 0.8471
vn -0.9154 -0.3716 0.1549
vn -0.3166 0.4267 -0.8471
vn -0.2487 0.8245 0.5083
s off
f 5//1 3//1 1//1
f 3//2 8//2 4//2
f 7//3 6//3 8//3
f 6//4 4//4 8//4
f 1//5 4//5 2//5
f 6//6 1//6 2//6
f 9//7 15//7 11//7
f 11//8 16//8 12//8
f 15//9 14//9 16//9
f 10//10 16//10 14//10
f 9//11 12//11 10//11
f 13//12 10//12 14//12
f 17//13 23//13 19//13
f 20//14 23//14 24//14
f 24//15 21//15 22//15
f 22//16 20//16 24//16
f 18//17 19//17 20//17
f 21//18 18//18 22//18
f 25//7 31//7 27//7
f 27//8 32//8 28//8
f 31//9 30//9 32//9
f 26//10 32//10 30//10
f 26//11 27//11 28//11
f 29//12 26//12 30//12
f 5//1 7//1 3//1
f 3//2 7//2 8//2
f 7//3 5//3 6//3
f 6//4 2//4 4//4
f 1//5 3//5 4//5
f 6//6 5//6 1//6
f 9//7 13//7 15//7
f 11//8 15//8 16//8
f 15//9 13//9 14//9
f 10//10 12//10 16//10
f 9//11 11//11 12//11
f 13//12 9//12 10//12
f 17//13 21//13 23//13
f 20//14 19//14 23//14
f 24//15 23//15 21//15
f 22//16 18//16 20//16
f 18//17 17//17 19//17
f 21//18 17//18 18//18
f 25//7 29//7 31//7
f 27//8 31//8 32//8
f 31//9 29//9 30//9
f 26//10 28//10 32//10
f 26//11 25//11 27//11
f 29//12 25//12 26//12
